<svg width="33" height="33" viewBox="0 0 33 33" fill="none" xmlns="http://www.w3.org/2000/svg">
<rect width="33" height="33" rx="16.5" fill="#D9D9D9"/>
<path d="M25.6673 26.75V24.5833C25.6673 23.4341 25.2108 22.3319 24.3981 21.5192C23.5855 20.7065 22.4833 20.25 21.334 20.25H12.6673C11.518 20.25 10.4158 20.7065 9.60319 21.5192C8.79053 22.3319 8.33398 23.4341 8.33398 24.5833V26.75M21.334 11.5833C21.334 13.9766 19.3939 15.9167 17.0007 15.9167C14.6074 15.9167 12.6673 13.9766 12.6673 11.5833C12.6673 9.1901 14.6074 7.25 17.0007 7.25C19.3939 7.25 21.334 9.1901 21.334 11.5833Z" stroke="#575757" stroke-width="1.6" stroke-linecap="round" stroke-linejoin="round"/>
</svg>
